<svg version="1.1" preserveAspectRatio="none" xmlns="http://www.w3.org/2000/svg" width="500" height="500" viewBox="0 0 500 500"><rect width="100%" height="100%" fill="#F5F1EE" fill-opacity="1"/><svg viewBox="17.279 75.4439 394.0082 251.5232" width="333" height="212.57736666394254" x="83.5px" y="143.7113px" xmlns="http://www.w3.org/2000/svg" xmlns:xlink="http://www.w3.org/1999/xlink" preserveAspectRatio="none"><defs></defs><style>.companyName {fill:#9D5D35;fill-opacity:1;}.icon1 {fill:#D6C4B0;fill-opacity:1;}.icon2 {fill:#5D949E;fill-opacity:1;}.icon3 {fill:#958868;fill-opacity:1;}.icon3-str {stroke:#958868;stroke-opacity:1;}.text {fill:#958868;fill-opacity:1;}</style><g opacity="1" transform="rotate(0 135.4815 75.4439)">
<svg width="157.6033" height="157.6032" x="135.4815" y="75.4439" version="1.1" preserveAspectRatio="none" viewBox="0 0 100 100">
  <g transform="matrix(1 0 0 1 0 0)" class="icon1"><g><path fill-rule="evenodd" clip-rule="evenodd" d="M47.094,0c1.942,0,3.883,0,5.825,0c10.356,0.849,19.129,4.168,25.128,8.82   C61.246,8.883,54.905,19.405,54.25,35.612c-15.567-1.059-23.271,7.274-25.461,20.801c-0.311,1.919-0.895,4.478-0.499,5.991   c0.271,1.034,2.267,2.434,3.328,3.495c7.606,7.605,16.56,16.241,23.963,23.131c-0.032-16.92,8.874-29.091,25.96-26.793   c0.058-1.493-0.018-3.058,0.167-4.659c1.243-10.834,6.325-19.423,16.308-21.633c5.259,17.274-0.753,34.767-8.485,44.765   c-8.285,10.709-20.7,18.117-37.942,19.304c-1.054,0-2.109,0-3.162,0c-14.57-0.865-25.623-6.485-33.449-14.312   C7.138,77.863,1.101,67.272,0,52.919c0-1.942,0-3.882,0-5.825c0.867-13.358,7.115-25.247,14.644-32.617   C22.666,6.625,33.348,1.112,47.094,0z"></path></g></g>
</svg>
</g><g opacity="1" transform="rotate(0 114.6364 309.0471)">
<svg width="199.2933" height="17.92" x="114.6364" y="309.0471" version="1.1" preserveAspectRatio="none" viewBox="4.56 -29.68 428.03999999999996 38.480000000000004">
  <g transform="matrix(1 0 0 1 0 0)" class="text"><path id="id-6izo4zJp19" d="M4.56 0L4.56-28L7.52-28L7.52 0L4.56 0Z M29.16-21.20Q33.12-21.20 35.46-18.90Q37.80-16.60 37.80-12.20L37.80-12.20L37.80 0L34.96 0L34.96-11.92Q34.96-15.20 33.32-16.92Q31.68-18.64 28.64-18.64L28.64-18.64Q25.24-18.64 23.26-16.62Q21.28-14.60 21.28-11.04L21.28-11.04L21.28 0L18.44 0L18.44-21.04L21.16-21.04L21.16-17.16Q22.32-19.08 24.38-20.14Q26.44-21.20 29.16-21.20L29.16-21.20Z M56.60 0.20Q53.56 0.20 51.12-1.18Q48.68-2.56 47.28-5Q45.88-7.44 45.88-10.52L45.88-10.52Q45.88-13.60 47.28-16.04Q48.68-18.48 51.12-19.84Q53.56-21.20 56.60-21.20L56.60-21.20Q59.64-21.20 62.08-19.84Q64.52-18.48 65.90-16.04Q67.28-13.60 67.28-10.52L67.28-10.52Q67.28-7.44 65.90-5Q64.52-2.56 62.08-1.18Q59.64 0.20 56.60 0.20L56.60 0.20ZM56.60-2.32Q58.84-2.32 60.62-3.34Q62.40-4.36 63.40-6.24Q64.40-8.12 64.40-10.52L64.40-10.52Q64.40-12.92 63.40-14.80Q62.40-16.68 60.62-17.70Q58.84-18.72 56.60-18.72L56.60-18.72Q54.36-18.72 52.58-17.70Q50.80-16.68 49.78-14.80Q48.76-12.92 48.76-10.52L48.76-10.52Q48.76-8.12 49.78-6.24Q50.80-4.36 52.58-3.34Q54.36-2.32 56.60-2.32L56.60-2.32Z M89.76-21.04L92.56-21.04L83.20 0L80.28 0L70.96-21.04L73.92-21.04L81.80-3.12L89.76-21.04Z M105.68-21.20Q109.80-21.20 112.00-19.14Q114.20-17.08 114.20-13.04L114.20-13.04L114.20 0L111.48 0L111.48-3.28Q110.52-1.64 108.66-0.72Q106.80 0.20 104.24 0.20L104.24 0.20Q100.72 0.20 98.64-1.48Q96.56-3.16 96.56-5.92L96.56-5.92Q96.56-8.60 98.50-10.24Q100.44-11.88 104.68-11.88L104.68-11.88L111.36-11.88L111.36-13.16Q111.36-15.88 109.84-17.30Q108.32-18.72 105.40-18.72L105.40-18.72Q103.40-18.72 101.56-18.06Q99.72-17.40 98.40-16.24L98.40-16.24L97.12-18.36Q98.72-19.72 100.96-20.46Q103.20-21.20 105.68-21.20L105.68-21.20ZM104.68-2.04Q107.08-2.04 108.80-3.14Q110.52-4.24 111.36-6.32L111.36-6.32L111.36-9.76L104.76-9.76Q99.36-9.76 99.36-6L99.36-6Q99.36-4.16 100.76-3.10Q102.16-2.04 104.68-2.04L104.68-2.04Z M133.12 0.20Q130.00 0.20 127.54-1.16Q125.08-2.52 123.68-4.98Q122.28-7.44 122.28-10.52L122.28-10.52Q122.28-13.60 123.68-16.04Q125.08-18.48 127.54-19.84Q130.00-21.20 133.12-21.20L133.12-21.20Q135.84-21.20 137.98-20.14Q140.12-19.08 141.36-17.04L141.36-17.04L139.24-15.60Q138.20-17.16 136.60-17.94Q135.00-18.72 133.12-18.72L133.12-18.72Q130.84-18.72 129.02-17.70Q127.20-16.68 126.18-14.80Q125.16-12.92 125.16-10.52L125.16-10.52Q125.16-8.08 126.18-6.22Q127.20-4.36 129.02-3.34Q130.84-2.32 133.12-2.32L133.12-2.32Q135.00-2.32 136.60-3.08Q138.20-3.84 139.24-5.40L139.24-5.40L141.36-3.96Q140.12-1.92 137.96-0.86Q135.80 0.20 133.12 0.20L133.12 0.20ZM131.44 8.80Q129.48 8.80 128.08 7.88L128.08 7.88L128.76 6.36Q129.92 7.12 131.40 7.12L131.40 7.12Q132.60 7.12 133.24 6.64Q133.88 6.16 133.88 5.24L133.88 5.24Q133.88 4.40 133.26 3.90Q132.64 3.40 131.40 3.40L131.40 3.40L130.48 3.40L131.44-0.24L133.16-0.24L132.56 2.08Q134.20 2.24 135.08 3.10Q135.96 3.96 135.96 5.32L135.96 5.32Q135.96 6.92 134.72 7.86Q133.48 8.80 131.44 8.80L131.44 8.80Z M156.68-21.20Q160.80-21.20 163.00-19.14Q165.20-17.08 165.20-13.04L165.20-13.04L165.20 0L162.48 0L162.48-3.28Q161.52-1.64 159.66-0.72Q157.80 0.20 155.24 0.20L155.24 0.20Q151.72 0.20 149.64-1.48Q147.56-3.16 147.56-5.92L147.56-5.92Q147.56-8.60 149.50-10.24Q151.44-11.88 155.68-11.88L155.68-11.88L162.36-11.88L162.36-13.16Q162.36-15.88 160.84-17.30Q159.32-18.72 156.40-18.72L156.40-18.72Q154.40-18.72 152.56-18.06Q150.72-17.40 149.40-16.24L149.40-16.24L148.12-18.36Q149.72-19.72 151.96-20.46Q154.20-21.20 156.68-21.20L156.68-21.20ZM155.68-2.04Q158.08-2.04 159.80-3.14Q161.52-4.24 162.36-6.32L162.36-6.32L162.36-9.76L155.76-9.76Q150.36-9.76 150.36-6L150.36-6Q150.36-4.16 151.76-3.10Q153.16-2.04 155.68-2.04L155.68-2.04ZM159.48-24.56Q158.56-24.56 157.84-24.98Q157.12-25.40 156.28-26.16L156.28-26.16Q155.56-26.76 155.14-27.02Q154.72-27.28 154.24-27.28L154.24-27.28Q153.32-27.28 152.76-26.60Q152.20-25.92 152.16-24.72L152.16-24.72L150.44-24.72Q150.52-26.72 151.48-27.92Q152.44-29.12 154.04-29.12L154.04-29.12Q154.96-29.12 155.66-28.72Q156.36-28.32 157.28-27.52L157.28-27.52Q157.92-26.96 158.36-26.68Q158.80-26.40 159.28-26.40L159.28-26.40Q160.16-26.40 160.72-27.06Q161.28-27.72 161.36-28.88L161.36-28.88L163.08-28.88Q163.00-26.92 162.04-25.74Q161.08-24.56 159.48-24.56L159.48-24.56Z M184.00 0.20Q180.96 0.20 178.52-1.18Q176.08-2.56 174.68-5Q173.28-7.44 173.28-10.52L173.28-10.52Q173.28-13.60 174.68-16.04Q176.08-18.48 178.52-19.84Q180.96-21.20 184.00-21.20L184.00-21.20Q187.04-21.20 189.48-19.84Q191.92-18.48 193.30-16.04Q194.68-13.60 194.68-10.52L194.68-10.52Q194.68-7.44 193.30-5Q191.92-2.56 189.48-1.18Q187.04 0.20 184.00 0.20L184.00 0.20ZM184.00-2.32Q186.24-2.32 188.02-3.34Q189.80-4.36 190.80-6.24Q191.80-8.12 191.80-10.52L191.80-10.52Q191.80-12.92 190.80-14.80Q189.80-16.68 188.02-17.70Q186.24-18.72 184.00-18.72L184.00-18.72Q181.76-18.72 179.98-17.70Q178.20-16.68 177.18-14.80Q176.16-12.92 176.16-10.52L176.16-10.52Q176.16-8.12 177.18-6.24Q178.20-4.36 179.98-3.34Q181.76-2.32 184.00-2.32L184.00-2.32Z M223.12-21.20Q227.24-21.20 229.44-19.14Q231.64-17.08 231.64-13.04L231.64-13.04L231.64 0L228.92 0L228.92-3.28Q227.96-1.64 226.10-0.72Q224.24 0.20 221.68 0.20L221.68 0.20Q218.16 0.20 216.08-1.48Q214.00-3.16 214.00-5.92L214.00-5.92Q214.00-8.60 215.94-10.24Q217.88-11.88 222.12-11.88L222.12-11.88L228.80-11.88L228.80-13.16Q228.80-15.88 227.28-17.30Q225.76-18.72 222.84-18.72L222.84-18.72Q220.84-18.72 219.00-18.06Q217.16-17.40 215.84-16.24L215.84-16.24L214.56-18.36Q216.16-19.72 218.40-20.46Q220.64-21.20 223.12-21.20L223.12-21.20ZM222.12-2.04Q224.52-2.04 226.24-3.14Q227.96-4.24 228.80-6.32L228.80-6.32L228.80-9.76L222.20-9.76Q216.80-9.76 216.80-6L216.80-6Q216.80-4.16 218.20-3.10Q219.60-2.04 222.12-2.04L222.12-2.04Z M263.36 0.20Q260.24 0.20 257.78-1.16Q255.32-2.52 253.92-4.98Q252.52-7.44 252.52-10.52L252.52-10.52Q252.52-13.60 253.92-16.04Q255.32-18.48 257.78-19.84Q260.24-21.20 263.36-21.20L263.36-21.20Q266.08-21.20 268.22-20.14Q270.36-19.08 271.60-17.04L271.60-17.04L269.48-15.60Q268.44-17.16 266.84-17.94Q265.24-18.72 263.36-18.72L263.36-18.72Q261.08-18.72 259.26-17.70Q257.44-16.68 256.42-14.80Q255.40-12.92 255.40-10.52L255.40-10.52Q255.40-8.08 256.42-6.22Q257.44-4.36 259.26-3.34Q261.08-2.32 263.36-2.32L263.36-2.32Q265.24-2.32 266.84-3.08Q268.44-3.84 269.48-5.40L269.48-5.40L271.60-3.96Q270.36-1.92 268.20-0.86Q266.04 0.20 263.36 0.20L263.36 0.20Z M286.92-21.20Q291.04-21.20 293.24-19.14Q295.44-17.08 295.44-13.04L295.44-13.04L295.44 0L292.72 0L292.72-3.28Q291.76-1.64 289.90-0.72Q288.04 0.20 285.48 0.20L285.48 0.20Q281.96 0.20 279.88-1.48Q277.80-3.16 277.80-5.92L277.80-5.92Q277.80-8.60 279.74-10.24Q281.68-11.88 285.92-11.88L285.92-11.88L292.60-11.88L292.60-13.16Q292.60-15.88 291.08-17.30Q289.56-18.72 286.64-18.72L286.64-18.72Q284.64-18.72 282.80-18.06Q280.96-17.40 279.64-16.24L279.64-16.24L278.36-18.36Q279.96-19.72 282.20-20.46Q284.44-21.20 286.92-21.20L286.92-21.20ZM285.92-2.04Q288.32-2.04 290.04-3.14Q291.76-4.24 292.60-6.32L292.60-6.32L292.60-9.76L286-9.76Q280.60-9.76 280.60-6L280.60-6Q280.60-4.16 282-3.10Q283.40-2.04 285.92-2.04L285.92-2.04Z M322-29.68L324.84-29.68L324.84 0L322.12 0L322.12-4.16Q320.84-2.04 318.74-0.92Q316.64 0.20 314 0.20L314 0.20Q311.04 0.20 308.64-1.16Q306.24-2.52 304.88-4.96Q303.52-7.40 303.52-10.52L303.52-10.52Q303.52-13.64 304.88-16.08Q306.24-18.52 308.64-19.86Q311.04-21.20 314-21.20L314-21.20Q316.56-21.20 318.62-20.14Q320.68-19.08 322-17.04L322-17.04L322-29.68ZM314.24-2.32Q316.44-2.32 318.22-3.34Q320-4.36 321.02-6.24Q322.04-8.12 322.04-10.52L322.04-10.52Q322.04-12.92 321.02-14.80Q320-16.68 318.22-17.70Q316.44-18.72 314.24-18.72L314.24-18.72Q312-18.72 310.22-17.70Q308.44-16.68 307.42-14.80Q306.40-12.92 306.40-10.52L306.40-10.52Q306.40-8.12 307.42-6.24Q308.44-4.36 310.22-3.34Q312-2.32 314.24-2.32L314.24-2.32Z M342.52-21.20Q346.64-21.20 348.84-19.14Q351.04-17.08 351.04-13.04L351.04-13.04L351.04 0L348.32 0L348.32-3.28Q347.36-1.64 345.50-0.72Q343.64 0.20 341.08 0.20L341.08 0.20Q337.56 0.20 335.48-1.48Q333.40-3.16 333.40-5.92L333.40-5.92Q333.40-8.60 335.34-10.24Q337.28-11.88 341.52-11.88L341.52-11.88L348.20-11.88L348.20-13.16Q348.20-15.88 346.68-17.30Q345.16-18.72 342.24-18.72L342.24-18.72Q340.24-18.72 338.40-18.06Q336.56-17.40 335.24-16.24L335.24-16.24L333.96-18.36Q335.56-19.72 337.80-20.46Q340.04-21.20 342.52-21.20L342.52-21.20ZM341.52-2.04Q343.92-2.04 345.64-3.14Q347.36-4.24 348.20-6.32L348.20-6.32L348.20-9.76L341.60-9.76Q336.20-9.76 336.20-6L336.20-6Q336.20-4.16 337.60-3.10Q339-2.04 341.52-2.04L341.52-2.04Z M390.40-29.68L393.24-29.68L393.24 0L390.52 0L390.52-4.16Q389.24-2.04 387.14-0.92Q385.04 0.20 382.40 0.20L382.40 0.20Q379.44 0.20 377.04-1.16Q374.64-2.52 373.28-4.96Q371.92-7.40 371.92-10.52L371.92-10.52Q371.92-13.64 373.28-16.08Q374.64-18.52 377.04-19.86Q379.44-21.20 382.40-21.20L382.40-21.20Q384.96-21.20 387.02-20.14Q389.08-19.08 390.40-17.04L390.40-17.04L390.40-29.68ZM382.64-2.32Q384.84-2.32 386.62-3.34Q388.40-4.36 389.42-6.24Q390.44-8.12 390.44-10.52L390.44-10.52Q390.44-12.92 389.42-14.80Q388.40-16.68 386.62-17.70Q384.84-18.72 382.64-18.72L382.64-18.72Q380.40-18.72 378.62-17.70Q376.84-16.68 375.82-14.80Q374.80-12.92 374.80-10.52L374.80-10.52Q374.80-8.12 375.82-6.24Q376.84-4.36 378.62-3.34Q380.40-2.32 382.64-2.32L382.64-2.32Z M403.56 0L403.56-21.04L406.40-21.04L406.40 0L403.56 0ZM405.00-25.64Q404.12-25.64 403.52-26.24Q402.92-26.84 402.92-27.68L402.92-27.68Q402.92-28.48 403.52-29.08Q404.12-29.68 405.00-29.68L405.00-29.68Q405.88-29.68 406.48-29.10Q407.08-28.52 407.08-27.72L407.08-27.72Q407.08-26.84 406.48-26.24Q405.88-25.64 405.00-25.64L405.00-25.64Z M424.08-21.20Q428.20-21.20 430.40-19.14Q432.60-17.08 432.60-13.04L432.60-13.04L432.60 0L429.88 0L429.88-3.28Q428.92-1.64 427.06-0.72Q425.20 0.20 422.64 0.20L422.64 0.20Q419.12 0.20 417.04-1.48Q414.96-3.16 414.96-5.92L414.96-5.92Q414.96-8.60 416.90-10.24Q418.84-11.88 423.08-11.88L423.08-11.88L429.76-11.88L429.76-13.16Q429.76-15.88 428.24-17.30Q426.72-18.72 423.80-18.72L423.80-18.72Q421.80-18.72 419.96-18.06Q418.12-17.40 416.80-16.24L416.80-16.24L415.52-18.36Q417.12-19.72 419.36-20.46Q421.60-21.20 424.08-21.20L424.08-21.20ZM423.08-2.04Q425.48-2.04 427.20-3.14Q428.92-4.24 429.76-6.32L429.76-6.32L429.76-9.76L423.16-9.76Q417.76-9.76 417.76-6L417.76-6Q417.76-4.16 419.16-3.10Q420.56-2.04 423.08-2.04L423.08-2.04Z"/></g>
</svg>
</g><g opacity="1" transform="rotate(0 17.279 259.0471)">
<svg width="394.0082" height="32" x="17.279" y="259.0471" version="1.1" preserveAspectRatio="none" viewBox="-0.8008 -26.8359 336.9141 27.3633">
  <g transform="matrix(1 0 0 1 0 0)" class="companyName"><path id="id-D6z1nYkh13" d="M8.67-24.65L8.67-26.84L20.12-26.84L33.01-2.21L38.16-2.21L38.16 0L24.51 0L24.51-2.21L30.31-2.21L26.76-9.12L10.61-9.12L6.99-2.21L12.83-2.21L12.83 0L-0.80 0L-0.80-2.21L4.36-2.21L16.07-24.65L8.67-24.65ZM25.57-11.33L18.67-24.47L11.80-11.33L25.57-11.33Z M38.28-16.41L38.28-18.59L45.12-18.59L45.12-15.08Q46.04-15.96 47.17-16.71Q48.30-17.46 49.61-18.03Q50.92-18.59 52.36-18.92Q53.81-19.24 55.33-19.24L55.33-19.24Q57.15-19.24 58.51-18.78Q59.86-18.32 60.76-17.48Q61.66-16.64 62.11-15.44Q62.56-14.24 62.56-12.75L62.56-12.75L62.56-2.21L66.97-2.21L66.97 0L55.72 0L55.72-2.21L60.12-2.21L60.12-12.03Q60.12-13.52 59.74-14.48Q59.36-15.45 58.65-16.02Q57.95-16.58 56.94-16.81Q55.94-17.03 54.69-17.03L54.69-17.03Q53.22-17.03 51.82-16.64Q50.41-16.25 49.17-15.66Q47.93-15.08 46.88-14.37Q45.84-13.65 45.12-13.01L45.12-13.01L45.12-2.21L49.53-2.21L49.53 0L38.28 0L38.28-2.21L42.68-2.21L42.68-16.41L38.28-16.41Z M96.31-2.21L96.31 0L89.47 0L89.47-2.71Q88.55-1.99 87.56-1.40Q86.56-0.80 85.42-0.37Q84.28 0.06 82.98 0.29Q81.68 0.53 80.16 0.53L80.16 0.53Q78.13 0.53 76.20-0.07Q74.28-0.66 72.79-1.89Q71.31-3.13 70.41-5Q69.51-6.88 69.51-9.43L69.51-9.43Q69.51-11.89 70.40-13.71Q71.29-15.53 72.83-16.73Q74.38-17.93 76.45-18.53Q78.52-19.12 80.88-19.12L80.88-19.12Q82.07-19.12 83.22-18.94Q84.38-18.75 85.47-18.42Q86.56-18.09 87.58-17.65Q88.59-17.21 89.47-16.72L89.47-16.72L89.47-24.65L85.04-24.65L85.04-26.84L91.91-26.84L91.91-2.21L96.31-2.21ZM80.72-1.56L80.72-1.56Q82.17-1.56 83.45-1.90Q84.73-2.25 85.83-2.79Q86.93-3.34 87.84-4.00Q88.75-4.67 89.47-5.31L89.47-5.31L89.47-14.24Q88.73-14.79 87.81-15.28Q86.89-15.78 85.81-16.17Q84.73-16.56 83.51-16.80Q82.29-17.03 80.92-17.03L80.92-17.03Q78.91-17.03 77.25-16.52Q75.59-16.02 74.40-15.05Q73.22-14.08 72.57-12.67Q71.91-11.25 71.91-9.43L71.91-9.43Q71.91-5.64 74.16-3.60Q76.41-1.56 80.72-1.56Z M97.75-16.41L97.75-18.59L104.59-18.59L104.59-14.69Q105.39-15.63 106.31-16.44Q107.23-17.25 108.29-17.84Q109.36-18.44 110.58-18.78Q111.80-19.12 113.20-19.12L113.20-19.12Q113.91-19.12 114.51-19.01Q115.12-18.91 115.59-18.77Q116.05-18.63 116.37-18.50Q116.68-18.36 116.80-18.32L116.80-18.32L115.92-16.07Q115.43-16.33 114.66-16.60Q113.89-16.88 112.71-16.88L112.71-16.88Q111.23-16.88 109.99-16.42Q108.75-15.96 107.74-15.27Q106.74-14.59 105.96-13.76Q105.18-12.93 104.59-12.21L104.59-12.21L104.59-2.21L109.39-2.21L109.39 0L97.75 0L97.75-2.21L102.15-2.21L102.15-16.41L97.75-16.41Z M120.92-10.23L138.09-10.23Q137.99-11.56 137.48-12.75Q136.97-13.95 135.96-14.85Q134.94-15.76 133.40-16.30Q131.86-16.84 129.69-16.84L129.69-16.84Q127.66-16.84 126.09-16.30Q124.53-15.76 123.44-14.85Q122.34-13.95 121.72-12.75Q121.09-11.56 120.92-10.23L120.92-10.23ZM129.65 0.49L129.65 0.49Q127.09 0.49 125.01-0.19Q122.93-0.86 121.46-2.12Q120-3.38 119.20-5.18Q118.40-6.97 118.40-9.20L118.40-9.20Q118.40-11.37 119.24-13.17Q120.08-14.98 121.58-16.28Q123.09-17.58 125.16-18.29Q127.23-19.00 129.69-19.00L129.69-19.00Q132.25-19.00 134.28-18.28Q136.31-17.56 137.71-16.20Q139.12-14.84 139.86-12.91Q140.61-10.98 140.61-8.55L140.61-8.55L140.61-8.13L120.92-8.13Q121.05-6.64 121.69-5.45Q122.32-4.26 123.44-3.42Q124.55-2.58 126.10-2.13Q127.66-1.68 129.65-1.68L129.65-1.68Q131.56-1.68 132.98-1.99Q134.39-2.30 135.38-2.83Q136.37-3.36 136.98-4.02Q137.60-4.69 137.93-5.39L137.93-5.39L140.37-5.39Q139.22-2.42 136.46-0.97Q133.69 0.49 129.65 0.49Z M143.36-16.41L143.36-18.59L150.20-18.59L150.20-2.21L154.61-2.21L154.61 0L143.36 0L143.36-2.21L147.75-2.21L147.75-16.41L143.36-16.41ZM146.52-23.81L146.52-23.81Q146.52-24.26 146.69-24.66Q146.86-25.06 147.15-25.35Q147.44-25.64 147.83-25.82Q148.22-26.00 148.67-26.00L148.67-26.00Q149.12-26.00 149.52-25.82Q149.92-25.64 150.22-25.35Q150.53-25.06 150.70-24.66Q150.88-24.26 150.88-23.81L150.88-23.81Q150.88-23.36 150.70-22.96Q150.53-22.56 150.22-22.27Q149.92-21.97 149.52-21.81Q149.12-21.64 148.67-21.64L148.67-21.64Q148.22-21.64 147.83-21.81Q147.44-21.97 147.15-22.27Q146.86-22.56 146.69-22.96Q146.52-23.36 146.52-23.81Z M171.88-24.65L171.88-26.84L185.51-26.84L185.51-24.65L179.92-24.65L179.92-2.29L199.36-2.29L199.36-8.44L201.56-8.44L201.56 0L171.88 0L171.88-2.21L177.48-2.21L177.48-24.65L171.88-24.65Z M228.95-9.28L228.95-9.28Q228.95-6.72 228.03-4.87Q227.11-3.03 225.51-1.83Q223.91-0.63 221.73-0.05Q219.55 0.53 217.03 0.53L217.03 0.53Q214.49 0.53 212.30-0.05Q210.12-0.63 208.51-1.83Q206.89-3.03 205.98-4.87Q205.06-6.72 205.06-9.28L205.06-9.28Q205.06-11.82 205.99-13.68Q206.91-15.55 208.54-16.75Q210.16-17.95 212.34-18.54Q214.53-19.12 217.03-19.12L217.03-19.12Q219.55-19.12 221.73-18.54Q223.91-17.97 225.51-16.77Q227.11-15.57 228.03-13.70Q228.95-11.84 228.95-9.28ZM226.54-9.28L226.54-9.28Q226.54-13.05 224.15-15.04Q221.76-17.03 217.03-17.03L217.03-17.03Q212.29-17.03 209.87-15.04Q207.46-13.05 207.46-9.28L207.46-9.28Q207.46-5.51 209.87-3.54Q212.29-1.56 217.03-1.56L217.03-1.56Q221.76-1.56 224.15-3.54Q226.54-5.53 226.54-9.28Z M231.78-24.65L231.78-26.84L238.61-26.84L238.61-15.88Q239.53-16.60 240.54-17.20Q241.54-17.79 242.69-18.22Q243.83-18.65 245.13-18.89Q246.43-19.12 247.93-19.12L247.93-19.12Q249.98-19.12 251.89-18.53Q253.81-17.93 255.29-16.70Q256.78-15.47 257.68-13.59Q258.57-11.72 258.57-9.16L258.57-9.16Q258.57-6.70 257.69-4.87Q256.80-3.05 255.25-1.85Q253.71-0.64 251.64-0.06Q249.57 0.53 247.23 0.53L247.23 0.53Q246.04 0.53 244.87 0.34Q243.71 0.16 242.61-0.17Q241.50-0.49 240.50-0.93Q239.49-1.37 238.61-1.88L238.61-1.88L238.61 0L231.78 0L231.78-2.21L236.17-2.21L236.17-24.65L231.78-24.65ZM238.61-13.28L238.61-4.32Q239.38-3.77 240.28-3.27Q241.19-2.77 242.27-2.39Q243.34-2.01 244.57-1.79Q245.80-1.56 247.19-1.56L247.19-1.56Q249.20-1.56 250.85-2.07Q252.50-2.58 253.68-3.54Q254.86-4.51 255.52-5.93Q256.17-7.34 256.17-9.16L256.17-9.16Q256.17-11.05 255.61-12.52Q255.04-13.98 253.94-14.99Q252.83-16.00 251.19-16.51Q249.55-17.03 247.38-17.03L247.38-17.03Q245.92-17.03 244.64-16.69Q243.36-16.35 242.27-15.80Q241.17-15.25 240.25-14.59Q239.34-13.93 238.61-13.28L238.61-13.28Z M280.16 0L280.16-2.17Q279.26-1.72 278.16-1.24Q277.07-0.76 275.80-0.37Q274.53 0.02 273.11 0.27Q271.68 0.53 270.12 0.53L270.12 0.53Q268.36 0.53 266.93 0.18Q265.51-0.18 264.51-0.87Q263.52-1.56 262.97-2.59Q262.42-3.61 262.42-4.96L262.42-4.96Q262.42-7.05 263.77-8.38Q265.12-9.71 267.49-10.50Q269.86-11.29 273.11-11.66Q276.35-12.03 280.16-12.21L280.16-12.21L280.16-13.13Q280.16-14.16 279.59-14.90Q279.02-15.64 278.07-16.11Q277.11-16.58 275.85-16.81Q274.59-17.03 273.18-17.03L273.18-17.03Q271.54-17.03 270.32-16.83Q269.10-16.62 268.26-16.22Q267.42-15.82 266.92-15.24Q266.43-14.67 266.19-13.93L266.19-13.93L263.71-14.51Q264.34-16.70 266.69-17.91Q269.04-19.12 273.11-19.12L273.11-19.12Q275.16-19.12 276.89-18.77Q278.63-18.42 279.89-17.66Q281.15-16.89 281.87-15.67Q282.58-14.45 282.58-12.71L282.58-12.71L282.58-2.21L287.23-2.21L287.23 0L280.16 0ZM280.16-4.51L280.16-10.16Q275.88-10 272.95-9.60Q270.02-9.20 268.21-8.56Q266.41-7.93 265.62-7.06Q264.82-6.19 264.82-5.08L264.82-5.08Q264.82-3.36 266.32-2.46Q267.81-1.56 270.70-1.56L270.70-1.56Q271.93-1.56 273.33-1.84Q274.73-2.11 276.04-2.53Q277.34-2.95 278.44-3.48Q279.53-4.00 280.16-4.51L280.16-4.51Z M287.64-16.41L287.64-18.59L292.68-18.59L292.68-25.04L295.12-25.04L295.12-18.59L308.20-18.59L308.20-16.41L295.12-16.41L295.12-5.57Q295.12-4.41 295.54-3.65Q295.96-2.89 296.72-2.44Q297.48-1.99 298.54-1.82Q299.61-1.64 300.88-1.64L300.88-1.64Q302.15-1.64 303.20-1.80Q304.26-1.95 305.12-2.20Q305.98-2.44 306.69-2.76Q307.40-3.09 307.99-3.44L307.99-3.44L309.20-1.48Q308.48-1.07 307.57-0.71Q306.66-0.35 305.61-0.09Q304.55 0.18 303.36 0.33Q302.17 0.49 300.92 0.49L300.92 0.49Q299.04 0.49 297.52 0.18Q296.00-0.14 294.92-0.84Q293.85-1.54 293.26-2.69Q292.68-3.83 292.68-5.49L292.68-5.49L292.68-16.41L287.64-16.41Z M336.11-9.28L336.11-9.28Q336.11-6.72 335.20-4.87Q334.28-3.03 332.68-1.83Q331.07-0.63 328.90-0.05Q326.72 0.53 324.20 0.53L324.20 0.53Q321.66 0.53 319.47-0.05Q317.29-0.63 315.67-1.83Q314.06-3.03 313.14-4.87Q312.23-6.72 312.23-9.28L312.23-9.28Q312.23-11.82 313.15-13.68Q314.08-15.55 315.70-16.75Q317.32-17.95 319.51-18.54Q321.70-19.12 324.20-19.12L324.20-19.12Q326.72-19.12 328.90-18.54Q331.07-17.97 332.68-16.77Q334.28-15.57 335.20-13.70Q336.11-11.84 336.11-9.28ZM333.71-9.28L333.71-9.28Q333.71-13.05 331.32-15.04Q328.93-17.03 324.20-17.03L324.20-17.03Q319.45-17.03 317.04-15.04Q314.63-13.05 314.63-9.28L314.63-9.28Q314.63-5.51 317.04-3.54Q319.45-1.56 324.20-1.56L324.20-1.56Q328.93-1.56 331.32-3.54Q333.71-5.53 333.71-9.28Z"/></g>
</svg>
</g></svg></svg>